<svg width="48" height="55" viewBox="0 0 48 55" fill="none" xmlns="http://www.w3.org/2000/svg">
<path d="M15.2852 17C21.5969 17 26.7137 22.117 26.7139 28.4287C26.7138 29.2117 26.6344 29.9761 26.4844 30.7148H47.8545C47.8563 30.8334 47.8574 30.9522 47.8574 31.0713C47.8574 44.2867 37.144 54.9999 23.9287 55C10.7133 55 0 44.2867 0 31.0713C1.11319e-06 30.9522 0.00119107 30.8334 0.00292969 30.7148H4.08594C3.93592 29.9761 3.85647 29.2117 3.85645 28.4287C3.8566 22.1172 8.97366 17.0003 15.2852 17ZM15.2852 20.5723C10.9461 20.5726 7.42886 24.0896 7.42871 28.4287C7.42875 29.224 7.5488 29.9913 7.76855 30.7148H22.8037C23.0235 29.9913 23.1425 29.224 23.1426 28.4287C23.1424 24.0895 19.6244 20.5723 15.2852 20.5723ZM35.6436 14.8574C38.6019 14.8578 41 17.2564 41 20.2148C40.9997 23.173 38.6017 25.5709 35.6436 25.5713C32.6851 25.5713 30.2864 23.1733 30.2861 20.2148C30.2861 17.2562 32.6849 14.8574 35.6436 14.8574ZM35.6436 17C33.8684 17 32.4287 18.4396 32.4287 20.2148C32.429 21.9898 33.8685 23.4287 35.6436 23.4287C37.4183 23.4284 38.8571 21.9896 38.8574 20.2148C38.8574 18.4399 37.4184 17.0004 35.6436 17ZM27.7861 0.571289C30.7445 0.571518 33.1424 2.97035 33.1426 5.92871C33.1423 8.88704 30.7445 11.2849 27.7861 11.2852C24.8276 11.2852 22.4289 8.88718 22.4287 5.92871C22.4289 2.97021 24.8276 0.571289 27.7861 0.571289ZM27.7861 2.71387C26.0111 2.71387 24.5715 4.15368 24.5713 5.92871C24.5715 7.70371 26.0111 9.14258 27.7861 9.14258C29.561 9.14235 30.9998 7.70357 31 5.92871C30.9998 4.15382 29.561 2.7141 27.7861 2.71387Z" fill="#EA7727"/>
</svg>
